<svg width="60" height="60" viewBox="0 0 60 60" fill="none" xmlns="http://www.w3.org/2000/svg">
<rect x="0.5" y="0.5" width="58.9537" height="59" rx="29.4769" stroke="white"/>
<path d="M30.0059 15C28.3589 15 27.0023 16.3566 27.0023 18.0035C27.0023 19.2987 27.8453 20.4019 29.0047 20.8193V23.0407H31.007V20.8193C32.1665 20.4019 33.0094 19.2987 33.0094 18.0035C33.0094 16.3566 31.6528 15 30.0059 15ZM30.0059 17.0023C30.5707 17.0023 31.007 17.4387 31.007 18.0035C31.007 18.5684 30.5707 19.0047 30.0059 19.0047C29.4411 19.0047 29.0047 18.5684 29.0047 18.0035C29.0047 17.4387 29.4411 17.0023 30.0059 17.0023ZM21.4099 18.4142C20.6391 18.4142 19.8685 18.7079 19.2863 19.2902C18.1217 20.4547 18.1217 22.3728 19.2863 23.5373C20.2013 24.4524 21.5781 24.6351 22.6926 24.1122L24.2648 25.6844L25.6805 24.2687L24.1083 22.7004C24.6353 21.5847 24.4504 20.2071 23.5334 19.2902C22.9512 18.7079 22.1806 18.4142 21.4099 18.4142ZM38.5315 18.4337C37.7607 18.4337 36.9902 18.7275 36.4079 19.3097C35.4923 20.2254 35.3049 21.6012 35.8291 22.7161L34.2608 24.2843L35.6766 25.7L37.2448 24.1318C38.3598 24.6565 39.7392 24.4728 40.6551 23.5569C41.8196 22.3923 41.8196 20.4743 40.6551 19.3097C40.0728 18.7275 39.3022 18.4337 38.5315 18.4337ZM21.4099 20.4048C21.664 20.4048 21.918 20.5062 22.1177 20.7059C22.5171 21.1052 22.5171 21.7222 22.1177 22.1216C21.7183 22.5209 21.1014 22.5209 20.702 22.1216C20.3026 21.7222 20.3026 21.1052 20.702 20.7059C20.9017 20.5062 21.1557 20.4048 21.4099 20.4048ZM38.5315 20.4243C38.7856 20.4243 39.0397 20.5258 39.2393 20.7255C39.6387 21.1249 39.6387 21.7419 39.2393 22.1412C38.84 22.5406 38.223 22.5406 37.8236 22.1412C37.4243 21.7419 37.4243 21.1249 37.8236 20.7255C38.0233 20.5258 38.2774 20.4243 38.5315 20.4243ZM30.0215 25.0078C27.2687 25.0078 25.0156 27.2609 25.0156 30.0137C25.0156 32.7663 27.2687 35.0196 30.0215 35.0196C32.7743 35.0196 35.0274 32.7663 35.0274 30.0137C35.0274 27.2609 32.7743 25.0078 30.0215 25.0078ZM42.0669 26.9906C40.7717 26.9906 39.6685 27.8335 39.2511 28.993H37.0297V30.9953H39.2511C39.6695 32.1529 40.773 32.9977 42.0669 32.9977C43.7138 32.9977 45.0704 31.6411 45.0704 29.9941C45.0704 28.3472 43.7138 26.9906 42.0669 26.9906ZM18.0035 27.0023C16.3566 27.0023 15 28.3589 15 30.0059C15 31.653 16.3566 33.0094 18.0035 33.0094C19.2974 33.0094 20.4009 32.1647 20.8193 31.007H23.0407V29.0047H20.8193C20.4019 27.8453 19.2987 27.0023 18.0035 27.0023ZM30.0215 27.0102C31.6922 27.0102 33.025 28.3429 33.025 30.0137C33.025 31.6842 31.6922 33.0172 30.0215 33.0172C28.3509 33.0172 27.018 31.6842 27.018 30.0137C27.018 28.3429 28.3509 27.0102 30.0215 27.0102ZM42.0669 28.993C42.6317 28.993 43.068 29.4293 43.068 29.9941C43.068 30.559 42.6317 30.9953 42.0669 30.9953C41.5021 30.9953 41.0657 30.559 41.0657 29.9941C41.0657 29.4293 41.5021 28.993 42.0669 28.993ZM18.0035 29.0047C18.5683 29.0047 19.0047 29.4412 19.0047 30.0059C19.0047 30.5707 18.5683 31.007 18.0035 31.007C17.4387 31.007 17.0023 30.5707 17.0023 30.0059C17.0023 29.4412 17.4387 29.0047 18.0035 29.0047ZM30.483 35.0274C30.1013 35.0096 29.7183 35.0162 29.3371 35.043C26.2878 35.2573 23.3309 36.8933 21.2065 39.7869L21.0109 40.0528V45H22.0121H39.0321V40.0372L38.8365 39.7712C38.5422 39.3713 38.2297 38.9914 37.8979 38.6332C35.8 36.3676 33.1546 35.1517 30.483 35.0274ZM31.0227 37.0923C32.9418 37.3311 34.8276 38.2664 36.4274 39.9941C36.6381 40.2216 36.8351 40.4719 37.0297 40.7215V42.9977H23.0133V40.7919C24.6915 38.6193 26.8237 37.3881 29.0203 37.1001V40.0332V41.0344H31.0227V40.0332V37.0923Z" fill="white"/>
</svg>
