<svg width="60" height="60" viewBox="0 0 60 60" fill="none" xmlns="http://www.w3.org/2000/svg">
<rect x="0.5" y="0.5" width="58.9537" height="59" rx="29.4769" stroke="white"/>
<path d="M40.3633 29.4275C40.0704 29.4275 39.7895 29.3111 39.5825 29.1038C39.3754 28.8966 39.2591 28.6155 39.2591 28.3225V25.2018C39.2591 20.7816 35.178 17.2455 30.1605 17.2455C25.143 17.2455 21.0619 20.8258 21.0619 25.2018V28.3225C21.0619 28.6155 20.9456 28.8966 20.7385 29.1038C20.5314 29.3111 20.2506 29.4275 19.9577 29.4275C19.6649 29.4275 19.384 29.3111 19.1769 29.1038C18.9699 28.8966 18.8535 28.6155 18.8535 28.3225V25.2018C18.8535 19.5793 23.9328 15 30.1605 15C36.3882 15 41.4675 19.5793 41.4675 25.2018V28.3225C41.4686 28.4679 41.4409 28.6121 41.3858 28.7467C41.3307 28.8813 41.2494 29.0036 41.1467 29.1065C41.0439 29.2093 40.9217 29.2907 40.7872 29.3458C40.6527 29.4009 40.5086 29.4287 40.3633 29.4275Z" fill="white"/>
<path d="M37.3772 39.8245C37.0844 39.8245 36.8035 39.7081 36.5965 39.5009C36.3894 39.2936 36.273 39.0125 36.273 38.7195V28.2259C36.2822 27.939 36.4026 27.667 36.6087 27.4673C36.8148 27.2677 37.0904 27.1561 37.3772 27.1563C41.1845 27.1563 44.2851 30.0117 44.2851 33.5125C44.2851 37.0133 41.1845 39.8245 37.3772 39.8245ZM38.4814 29.4459V37.4995C39.4482 37.3393 40.3311 36.853 40.9835 36.1213C41.6359 35.3896 42.0185 34.4565 42.0679 33.4771C42.0205 32.4962 41.6387 31.5611 40.9861 30.8276C40.3336 30.094 39.4496 29.6064 38.4814 29.4459ZM22.9079 39.8245C19.1006 39.8245 16 36.9779 16 33.4771C16 29.9763 19.1006 27.1563 22.9079 27.1563C23.2007 27.1563 23.4816 27.2727 23.6886 27.4799C23.8957 27.6871 24.012 27.9682 24.012 28.2613V38.7195C24.012 39.0125 23.8957 39.2936 23.6886 39.5009C23.4816 39.7081 23.2007 39.8245 22.9079 39.8245ZM21.8037 29.4459C20.8355 29.6064 19.9515 30.094 19.2989 30.8276C18.6464 31.5611 18.2646 32.4962 18.2172 33.4771C18.2666 34.4565 18.6492 35.3896 19.3016 36.1213C19.954 36.853 20.8369 37.3393 21.8037 37.4995V29.4459Z" fill="white"/>
<path d="M37.0162 43.4233H33.3591C33.0662 43.4233 32.7854 43.3068 32.5783 43.0996C32.3712 42.8924 32.2549 42.6113 32.2549 42.3182C32.2549 42.0251 32.3712 41.7441 32.5783 41.5368C32.7854 41.3296 33.0662 41.2132 33.3591 41.2132H37.0162C37.5878 41.2132 38.1361 40.9859 38.5403 40.5814C38.9445 40.1769 39.1716 39.6282 39.1716 39.0561V38.5699C39.1716 38.2768 39.2879 37.9957 39.495 37.7885C39.7021 37.5813 39.9829 37.4648 40.2758 37.4648C40.5686 37.4648 40.8495 37.5813 41.0565 37.7885C41.2636 37.9957 41.38 38.2768 41.38 38.5699V39.0561C41.38 40.2144 40.9202 41.3252 40.1018 42.1442C39.2835 42.9632 38.1735 43.4233 37.0162 43.4233Z" fill="white"/>
<path d="M31.4686 45.5006H29.2867C28.4855 45.5006 27.717 45.1821 27.1505 44.6151C26.5839 44.0481 26.2656 43.2791 26.2656 42.4772V42.3534C26.268 41.5531 26.5873 40.7864 27.1536 40.2213C27.7199 39.6562 28.487 39.3389 29.2867 39.3389H31.4686C32.2675 39.3389 33.0337 39.6565 33.5986 40.2218C34.1635 40.7872 34.4808 41.5539 34.4808 42.3534V42.4772C34.4808 43.2775 34.1638 44.0452 33.5991 44.612C33.0345 45.1787 32.2683 45.4983 31.4686 45.5006ZM29.3044 41.549C29.0904 41.549 28.885 41.6334 28.7328 41.784C28.5807 41.9347 28.494 42.1393 28.4917 42.3534V42.4772C28.4917 42.6929 28.5773 42.8998 28.7297 43.0523C28.8821 43.2048 29.0888 43.2905 29.3044 43.2905H31.4686C31.6826 43.2882 31.887 43.2015 32.0376 43.0492C32.1881 42.8969 32.2725 42.6914 32.2725 42.4772V42.3534C32.2725 42.1401 32.1878 41.9355 32.037 41.7846C31.8863 41.6337 31.6818 41.549 31.4686 41.549H29.3044Z" fill="white"/>
</svg>
