<svg width="36" height="36" viewBox="0 0 36 36" fill="none" xmlns="http://www.w3.org/2000/svg">
<path d="M36 18C36 14.0886 34.7259 10.2837 32.3707 7.16104C30.0154 4.03831 26.7071 1.76778 22.9463 0.69297C19.1855 -0.381894 15.177 -0.202426 11.5272 1.20405C7.87756 2.61059 4.78534 5.16759 2.71841 8.48826C0.651539 11.8089 -0.277438 15.7124 0.0719978 19.6081C0.421434 23.5039 2.03034 27.1797 4.65515 30.0795C7.28002 32.9793 10.778 34.9452 14.6197 35.6797C17.9186 36.3105 21.3168 36.0037 24.4334 34.8111C25.2857 34.4849 25.6208 33.4867 25.2179 32.6679C24.8149 31.8491 23.8266 31.5215 22.9677 31.8301C20.5019 32.7158 17.8335 32.9295 15.2403 32.4337C12.1039 31.8341 9.24821 30.2291 7.10527 27.8617C4.96233 25.4943 3.64886 22.4933 3.36358 19.3129C3.07829 16.1324 3.83671 12.9456 5.52411 10.2346C7.2115 7.52364 9.73604 5.43606 12.7157 4.28777C15.6953 3.13949 18.9679 2.99301 22.0382 3.87053C25.1084 4.74798 27.8094 6.60169 29.7322 9.15108C31.6551 11.7005 32.6952 14.8068 32.6952 18H32.6951C32.6951 24.2852 28.2099 26.0852 24.9345 26.0852C21.6591 26.0852 18.8476 23.5527 19.2099 22.0131L21.8123 10.9525C22.0505 9.94024 21.2824 8.97049 20.2425 8.97049C19.4923 8.97049 18.8412 9.48776 18.6716 10.2184L16.1115 21.2459C15.0959 25.5541 20.6558 29.3901 24.9344 29.3901C31.2492 29.3901 36 25.6721 36 18Z" fill="#12141D"/>
<path d="M13.1675 13.8C13.564 14.3578 13.4333 15.1316 12.8754 15.5281L9.39811 18L12.8754 20.4718C13.4333 20.8684 13.564 21.6421 13.1675 22.2C12.7709 22.7579 11.9972 22.8886 11.4393 22.4921L6.94697 19.2987C6.05332 18.6635 6.05332 17.3365 6.94696 16.7012C6.94696 16.7012 6.94697 16.7012 6.94696 16.7012L11.4393 13.5079C11.9972 13.1113 12.7709 13.2421 13.1675 13.8Z" fill="#12141D"/>
<path d="M22.8325 13.8C23.2291 13.2421 24.0028 13.1113 24.5607 13.5079L29.053 16.7012C29.9466 17.3365 29.9466 18.6635 29.053 19.2987L24.5607 22.4921C24.0028 22.8886 23.2291 22.7579 22.8325 22.2C22.4359 21.6421 22.5667 20.8684 23.1246 20.4718L26.6019 18L23.1246 15.5281C22.5667 15.1316 22.4359 14.3578 22.8325 13.8Z" fill="#12141D"/>
</svg>
