<svg width="64" height="64" viewBox="0 0 64 64" fill="none" xmlns="http://www.w3.org/2000/svg">
<rect width="64" height="64" fill="#007CF5"/>
<g clip-path="url(#clip0_4176_20275)">
<path d="M32 48C23.1811 48 16 40.8189 16 32C16 23.1811 23.1811 16 32 16C40.8189 16 48 23.1811 48 32C48 40.8189 40.8189 48 32 48ZM32 17.5237C24.019 17.5237 17.5237 24.019 17.5237 32C17.5237 39.981 24.019 46.4763 32 46.4763C39.981 46.4763 46.4763 39.981 46.4763 32C46.4763 24.019 39.981 17.5237 32 17.5237Z" fill="white"/>
<path d="M26.6666 23.6191H36.5714V25.1429H26.6666V23.6191Z" fill="white"/>
<path d="M18.8 23.6191H25.1429V25.1429H18.8V23.6191Z" fill="white"/>
<path d="M37.4475 45.6465L45.6958 26.6766L47.0932 27.2843L38.8448 46.2542L37.4475 45.6465Z" fill="white"/>
<path d="M26.5474 46.1798L31.6286 34.494L33.0262 35.1017L27.945 46.7875L26.5474 46.1798Z" fill="white"/>
<path d="M27.8647 24.6532L29.2994 24.1395L37.2394 46.315L35.8047 46.8287L27.8647 24.6532Z" fill="white"/>
<path d="M17.1303 26.598L18.565 26.0844L25.3864 45.1362L23.9517 45.6499L17.1303 26.598Z" fill="white"/>
<path d="M21.7664 24.6522L23.2011 24.1385L29.6838 42.2443L28.2491 42.758L21.7664 24.6522Z" fill="white"/>
<path d="M33.1934 24.6554L34.6281 24.1417L40.767 41.2874L39.3323 41.801L33.1934 24.6554Z" fill="white"/>
<path d="M43.8954 34.6383L42.4952 34.0286C42.6096 33.7622 42.6666 33.4003 42.6666 32.9145C42.6747 32.3866 42.5572 31.8643 42.3239 31.3905L40.0856 27.0668C39.4701 25.8707 39.4662 24.4516 40.0756 23.2518C40.6847 22.0523 41.8329 21.2183 43.1618 21.0096L43.4001 22.5144C42.1074 22.7234 41.154 23.8339 41.1428 25.143C41.1415 25.5671 41.2427 25.9854 41.438 26.362L43.676 30.686C44.0212 31.3743 44.1973 32.1349 44.1906 32.905C44.1906 33.6193 44.0951 34.162 43.8954 34.6383Z" fill="white"/>
</g>
<defs>
<clipPath id="clip0_4176_20275">
<rect width="32" height="32" fill="white" transform="translate(16 16)"/>
</clipPath>
</defs>
</svg>
