<svg width="64" height="64" viewBox="0 0 64 64" fill="none" xmlns="http://www.w3.org/2000/svg">
<rect width="64" height="64" fill="#007CF5"/>
<g clip-path="url(#clip0_4176_20220)">
<path d="M28.6256 38.4253C28.5047 38.4253 28.383 38.3837 28.2836 38.2991L24.865 35.3882C24.7471 35.2876 24.6793 35.1408 24.6793 34.9857C24.6793 34.831 24.7474 34.6842 24.865 34.5836L28.2836 31.6727C28.5056 31.4834 28.839 31.5102 29.0283 31.7322C29.2173 31.9545 29.1908 32.2879 28.9685 32.4769L26.0224 34.9857L28.9685 37.4946C29.1908 37.6839 29.2173 38.0173 29.0283 38.2393C28.9237 38.3622 28.7751 38.4253 28.6256 38.4253Z" fill="white"/>
<path d="M35.3744 38.4253C35.225 38.4253 35.0764 38.3622 34.972 38.2393C34.7828 38.0173 34.8096 37.6839 35.0316 37.4946L37.9776 34.9857L35.0316 32.4769C34.8096 32.2879 34.7828 31.9545 34.972 31.7322C35.161 31.5102 35.4947 31.4834 35.7164 31.6727L39.1351 34.5836C39.253 34.6842 39.3208 34.831 39.3208 34.9857C39.3208 35.1408 39.253 35.2876 39.1351 35.3882L35.7164 38.2991C35.6171 38.3837 35.4953 38.4253 35.3744 38.4253Z" fill="white"/>
<path d="M30.7898 40.6087C30.7536 40.6087 30.717 40.6049 30.6801 40.5972C30.3948 40.5371 30.212 40.2567 30.2721 39.9714L32.4027 29.8555C32.4629 29.5701 32.7429 29.3873 33.0286 29.4475C33.314 29.5076 33.4968 29.7877 33.4366 30.0734L31.306 40.1892C31.2536 40.438 31.0342 40.6087 30.7898 40.6087Z" fill="white"/>
<path d="M44.4528 46.12H19.5472C17.5914 46.12 16 44.5289 16 42.5728V21.4343C16 19.4785 17.5914 17.8871 19.5472 17.8871H44.4528C46.4086 17.8871 48 19.4785 48 21.4343V42.5728C48 44.5289 46.4086 46.12 44.4528 46.12ZM19.5472 18.9437C18.1739 18.9437 17.0566 20.061 17.0566 21.4343V42.5728C17.0566 43.946 18.1739 45.0634 19.5472 45.0634H44.4528C45.8261 45.0634 46.9434 43.946 46.9434 42.5728V21.4343C46.9434 20.061 45.8261 18.9437 44.4528 18.9437H19.5472Z" fill="white"/>
<path d="M47.4717 26.3466H16.5283C16.2364 26.3466 16 26.1102 16 25.8183C16 25.5268 16.2364 25.29 16.5283 25.29H47.4717C47.7636 25.29 48 25.5268 48 25.8183C48 26.1102 47.7636 26.3466 47.4717 26.3466Z" fill="white"/>
<path d="M25.0266 23.8187C24.105 23.8187 23.3547 23.0684 23.3547 22.1469C23.3547 21.225 24.105 20.475 25.0266 20.475C25.9484 20.475 26.6984 21.225 26.6984 22.1469C26.6984 23.0684 25.9484 23.8187 25.0266 23.8187ZM25.0266 21.5316C24.6875 21.5316 24.4113 21.8075 24.4113 22.1469C24.4113 22.4862 24.6875 22.7621 25.0266 22.7621C25.3659 22.7621 25.6418 22.4862 25.6418 22.1469C25.6418 21.8075 25.3659 21.5316 25.0266 21.5316Z" fill="white"/>
<path d="M19.8897 23.8024C18.9678 23.8024 18.2178 23.0524 18.2178 22.1305C18.2178 21.2086 18.9678 20.4586 19.8897 20.4586C20.8116 20.4586 21.5616 21.2086 21.5616 22.1305C21.5616 23.0524 20.8116 23.8024 19.8897 23.8024ZM19.8897 21.5152C19.5507 21.5152 19.2744 21.7915 19.2744 22.1305C19.2744 22.4698 19.5507 22.7458 19.8897 22.7458C20.229 22.7458 20.505 22.4698 20.505 22.1305C20.505 21.7915 20.229 21.5152 19.8897 21.5152Z" fill="white"/>
<path d="M30.1633 23.8345C29.2418 23.8345 28.4918 23.0845 28.4918 22.1627C28.4918 21.2411 29.2418 20.4911 30.1633 20.4911C31.0852 20.4911 31.8352 21.2411 31.8352 22.1627C31.8352 23.0845 31.0852 23.8345 30.1633 23.8345ZM30.1633 21.5474C29.8243 21.5474 29.5484 21.8233 29.5484 22.1627C29.5484 22.502 29.8243 22.7779 30.1633 22.7779C30.5027 22.7779 30.7786 22.502 30.7786 22.1627C30.7786 21.8233 30.5027 21.5474 30.1633 21.5474Z" fill="white"/>
</g>
<defs>
<clipPath id="clip0_4176_20220">
<rect width="32" height="32" fill="white" transform="translate(16 16)"/>
</clipPath>
</defs>
</svg>
