<svg width="64" height="64" viewBox="0 0 64 64" fill="none" xmlns="http://www.w3.org/2000/svg">
<rect width="64" height="64" fill="#007CF5"/>
<path d="M38 47H32C31.7348 47 31.4804 46.8946 31.2929 46.7071C31.1054 46.5196 31 46.2652 31 46V43C31 42.4696 30.7893 41.9609 30.4142 41.5858C30.0391 41.2107 29.5304 41 29 41C28.4696 41 27.9609 41.2107 27.5858 41.5858C27.2107 41.9609 27 42.4696 27 43V46C27 46.2652 26.8946 46.5196 26.7071 46.7071C26.5196 46.8946 26.2652 47 26 47H20C19.2044 47 18.4413 46.6839 17.8787 46.1213C17.3161 45.5587 17 44.7956 17 44V38C17 37.7348 17.1054 37.4804 17.2929 37.2929C17.4804 37.1054 17.7348 37 18 37H21C21.5304 37 22.0391 36.7893 22.4142 36.4142C22.7893 36.0391 23 35.5304 23 35C23 34.4696 22.7893 33.9609 22.4142 33.5858C22.0391 33.2107 21.5304 33 21 33H18C17.7348 33 17.4804 32.8946 17.2929 32.7071C17.1054 32.5196 17 32.2652 17 32V26C17 25.2044 17.3161 24.4413 17.8787 23.8787C18.4413 23.3161 19.2044 23 20 23H25V21C25 19.9391 25.4214 18.9217 26.1716 18.1716C26.9217 17.4214 27.9391 17 29 17C30.0609 17 31.0783 17.4214 31.8284 18.1716C32.5786 18.9217 33 19.9391 33 21V23H38C38.7956 23 39.5587 23.3161 40.1213 23.8787C40.6839 24.4413 41 25.2044 41 26V31H43C44.0609 31 45.0783 31.4214 45.8284 32.1716C46.5786 32.9217 47 33.9391 47 35C47 36.0609 46.5786 37.0783 45.8284 37.8284C45.0783 38.5786 44.0609 39 43 39H41V44C41 44.7956 40.6839 45.5587 40.1213 46.1213C39.5587 46.6839 38.7956 47 38 47ZM33 45H38C38.2652 45 38.5196 44.8946 38.7071 44.7071C38.8946 44.5196 39 44.2652 39 44V38C39 37.7348 39.1054 37.4804 39.2929 37.2929C39.4804 37.1054 39.7348 37 40 37H43C43.5304 37 44.0391 36.7893 44.4142 36.4142C44.7893 36.0391 45 35.5304 45 35C45 34.4696 44.7893 33.9609 44.4142 33.5858C44.0391 33.2107 43.5304 33 43 33H40C39.7348 33 39.4804 32.8946 39.2929 32.7071C39.1054 32.5196 39 32.2652 39 32V26C39 25.7348 38.8946 25.4804 38.7071 25.2929C38.5196 25.1054 38.2652 25 38 25H32C31.7348 25 31.4804 24.8946 31.2929 24.7071C31.1054 24.5196 31 24.2652 31 24V21C31 20.4696 30.7893 19.9609 30.4142 19.5858C30.0391 19.2107 29.5304 19 29 19C28.4696 19 27.9609 19.2107 27.5858 19.5858C27.2107 19.9609 27 20.4696 27 21V24C27 24.2652 26.8946 24.5196 26.7071 24.7071C26.5196 24.8946 26.2652 25 26 25H20C19.7348 25 19.4804 25.1054 19.2929 25.2929C19.1054 25.4804 19 25.7348 19 26V31H21C22.0609 31 23.0783 31.4214 23.8284 32.1716C24.5786 32.9217 25 33.9391 25 35C25 36.0609 24.5786 37.0783 23.8284 37.8284C23.0783 38.5786 22.0609 39 21 39H19V44C19 44.2652 19.1054 44.5196 19.2929 44.7071C19.4804 44.8946 19.7348 45 20 45H25V43C25 41.9391 25.4214 40.9217 26.1716 40.1716C26.9217 39.4214 27.9391 39 29 39C30.0609 39 31.0783 39.4214 31.8284 40.1716C32.5786 40.9217 33 41.9391 33 43V45Z" fill="white"/>
</svg>
