<svg width="64" height="64" viewBox="0 0 64 64" fill="none" xmlns="http://www.w3.org/2000/svg">
<rect width="64" height="64" fill="#007CF5"/>
<path fill-rule="evenodd" clip-rule="evenodd" d="M36.045 27.9556C35.245 27.1557 34.2258 26.6109 33.1163 26.3902C32.0067 26.1695 30.8566 26.2828 29.8114 26.7157C28.7662 27.1487 27.8729 27.8818 27.2444 28.8224C26.6158 29.7631 26.2804 30.869 26.2804 32.0003C26.2804 33.1316 26.6158 34.2375 27.2444 35.1782C27.8729 36.1188 28.7662 36.8519 29.8114 37.2849C30.8566 37.7178 32.0067 37.8311 33.1163 37.6104C34.2258 37.3897 35.245 36.8449 36.045 36.045C37.1176 34.9722 37.7201 33.5173 37.7201 32.0003C37.7201 30.4833 37.1176 29.0284 36.045 27.9556ZM32 25.0444C33.3758 25.0444 34.7208 25.4524 35.8647 26.2167C37.0087 26.9811 37.9003 28.0676 38.4268 29.3387C38.9533 30.6098 39.091 32.0085 38.8225 33.3579C38.5541 34.7073 37.8915 35.9468 36.9186 36.9196C35.9457 37.8925 34.7061 38.5549 33.3567 38.8233C32.0073 39.0916 30.6086 38.9538 29.3375 38.4272C28.0664 37.9006 26.9801 37.0089 26.2158 35.8648C25.4515 34.7208 25.0436 33.3758 25.0437 32C25.0439 30.1552 25.7769 28.386 27.0814 27.0816C28.3859 25.7772 30.1552 25.0444 32 25.0444ZM25.7362 19.4525C27.8059 18.8779 29.8075 18.0816 31.7062 17.0775C31.7954 17.0292 31.895 17.0036 31.9964 17.0029C32.0978 17.0023 32.1977 17.0266 32.2875 17.0737C34.188 18.0802 36.1917 18.8781 38.2637 19.4537C40.3568 20.0319 42.5045 20.3903 44.6719 20.5231C44.7532 20.5227 44.8337 20.5384 44.9089 20.5692C44.9841 20.6001 45.0525 20.6455 45.1101 20.7029C45.1677 20.7603 45.2133 20.8286 45.2444 20.9037C45.2755 20.9788 45.2914 21.0593 45.2912 21.1406V28.7975V28.8019C45.2456 33.5056 44.1431 37.3125 41.9625 40.3175C39.7819 43.3225 36.5331 45.5094 32.1981 46.9662C32.0712 47.0091 31.9338 47.0091 31.8069 46.9662C27.4719 45.5094 24.225 43.3244 22.0425 40.3175C19.8681 37.325 18.7662 33.5369 18.7119 28.8606C18.7106 28.8398 18.7106 28.8189 18.7119 28.7981V21.1406C18.7119 20.9834 18.7719 20.8322 18.8797 20.7177C18.9875 20.6033 19.1349 20.5344 19.2919 20.525C21.4716 20.3936 23.6315 20.0341 25.7362 19.4525ZM32 18.3125C35.7719 20.2581 39.8325 21.3794 44.0556 21.7137V28.7975C44.0112 33.23 42.9856 36.7975 40.9581 39.5931C38.9631 42.3431 35.9831 44.3594 31.9975 45.7312C28.0119 44.3594 25.0319 42.3419 23.0369 39.5931C21.0187 36.8087 19.9937 33.255 19.9425 28.8437C19.9425 28.8287 19.9425 28.8131 19.9425 28.7975V21.715C24.1675 21.3806 28.2281 20.2594 32 18.3125ZM34.2156 29.625C34.327 29.5053 34.4814 29.4348 34.6448 29.4289C34.8082 29.4231 34.9672 29.4823 35.0869 29.5937C35.2065 29.7051 35.2771 29.8595 35.2829 30.0229C35.2888 30.1863 35.2295 30.3453 35.1181 30.465L31.4762 34.3819C31.4157 34.4475 31.3417 34.4991 31.2592 34.5333C31.1768 34.5674 31.0879 34.5832 30.9987 34.5796C30.9095 34.576 30.8222 34.553 30.7427 34.5123C30.6633 34.4716 30.5937 34.414 30.5387 34.3437L28.875 32.5C28.8208 32.4401 28.7789 32.3701 28.7517 32.294C28.7246 32.2179 28.7127 32.1372 28.7167 32.0565C28.7208 31.9758 28.7406 31.8966 28.7752 31.8236C28.8099 31.7506 28.8585 31.6851 28.9184 31.6309C29.0394 31.5214 29.199 31.4645 29.362 31.4727C29.4427 31.4767 29.5218 31.4966 29.5948 31.5312C29.6678 31.5658 29.7333 31.6144 29.7875 31.6744L31.0281 33.045L34.2156 29.625Z" fill="white"/>
</svg>
