<svg width="64" height="64" viewBox="0 0 64 64" fill="none" xmlns="http://www.w3.org/2000/svg">
<rect width="64" height="64" fill="#007CF5"/>
<path d="M30.2036 39.4837C29.5271 39.4837 28.9772 38.9343 28.9772 38.2578C28.9772 37.5814 29.5271 37.0319 30.2036 37.0319C30.88 37.0319 31.43 37.5814 31.43 38.2578C31.43 38.9343 30.88 39.4837 30.2036 39.4837ZM30.2036 38.0643C30.0967 38.0643 30.0095 38.151 30.0095 38.2578C30.0095 38.4716 30.3976 38.4716 30.3976 38.2578C30.3976 38.151 30.3104 38.0643 30.2036 38.0643ZM34.8138 39.4837C34.1373 39.4837 33.5879 38.9343 33.5879 38.2578C33.5879 37.5814 34.1373 37.0319 34.8138 37.0319C35.4902 37.0319 36.0397 37.5814 36.0397 38.2578C36.0397 38.9343 35.4902 39.4837 34.8138 39.4837ZM34.8138 38.0643C34.7069 38.0643 34.6202 38.151 34.6202 38.2578C34.6202 38.4716 35.0073 38.4716 35.0073 38.2578C35.0073 38.151 34.9206 38.0643 34.8138 38.0643ZM38.6749 27.7118C38.4461 27.4134 38.0983 27.2425 37.7222 27.2425H25.9943L25.6887 26.0998C25.5339 25.5196 25.0067 25.1148 24.4063 25.1148H23.6371C23.3518 25.1148 23.1209 25.3457 23.1209 25.631C23.1209 25.9163 23.3518 26.1471 23.6371 26.1471H24.4063C24.5399 26.1471 24.6568 26.2374 24.6916 26.3664L27.157 35.5843C27.3375 36.2597 27.9519 36.7315 28.6511 36.7315H36.9258C37.2111 36.7315 37.442 36.5007 37.442 36.2154C37.442 35.9301 37.2111 35.6992 36.9258 35.6992H28.6511C28.4187 35.6992 28.214 35.5419 28.154 35.3181L27.9658 34.6144H29.6743H34.5446H35.7352C36.6697 34.6144 37.4914 33.9834 37.7333 33.0801L38.8836 28.7537C38.9804 28.3897 38.9038 28.0102 38.6749 27.7118ZM37.8563 28.3408C37.8755 28.3655 37.9047 28.4175 37.8855 28.4885L37.3739 30.4125H35.5609L35.8484 28.2748H37.7222C37.7948 28.2748 37.8372 28.3161 37.8563 28.3408ZM34.5198 30.4125H32.6231V28.2748H34.8077L34.5198 30.4125ZM31.5908 28.2748V30.4125H29.6959L29.4061 28.2748H31.5908ZM28.3643 28.2748L28.654 30.4125H26.8446L26.2719 28.2748H28.3643ZM28.7938 31.4449L29.0834 33.5821H27.6938L27.1212 31.4449H28.7938ZM29.8358 31.4449H31.5908V33.5821H30.1255L29.8358 31.4449ZM32.6231 33.5821V31.4449H34.3808L34.093 33.5821H32.6231ZM35.7352 33.5821H35.1344L35.4219 31.4449H37.0993L36.7353 32.8139C36.6143 33.2666 36.203 33.5821 35.7352 33.5821ZM24.742 19.4911C24.742 19.2239 24.5257 19.0076 24.2584 19.0076H18.9486C18.6813 19.0076 18.465 19.2239 18.465 19.4911C18.465 19.7584 18.6813 19.9747 18.9486 19.9747H24.2584C24.5257 19.9747 24.742 19.7584 24.742 19.4911ZM39.3241 19.4911C39.3241 19.7762 39.093 20.0072 38.808 20.0072C38.5229 20.0072 38.2918 19.7762 38.2918 19.4911C38.2918 19.206 38.5229 18.9749 38.808 18.9749C39.093 18.9749 39.3241 19.206 39.3241 19.4911ZM40.9374 18.9749C40.6523 18.9749 40.4212 19.206 40.4212 19.4911C40.4212 19.7762 40.6523 20.0073 40.9374 20.0073C41.2225 20.0073 41.4536 19.7762 41.4536 19.4911C41.4536 19.206 41.2225 18.9749 40.9374 18.9749ZM43.0668 18.9749C42.7818 18.9749 42.5507 19.206 42.5507 19.4911C42.5507 19.7762 42.7818 20.0073 43.0668 20.0073C43.3519 20.0073 43.583 19.7762 43.583 19.4911C43.583 19.206 43.3519 18.9749 43.0668 18.9749ZM47.6221 41.5302L46.039 40.1956C46.0401 40.1638 46.045 40.1325 46.045 40.1006V19.9356C46.045 18.3856 44.78 17.1206 43.23 17.1206H18.815C17.265 17.1206 16 18.3856 16 19.9356V40.1006C16 41.6506 17.265 42.9156 18.815 42.9156H40.484L40.4845 44.849C40.4845 45.2653 40.7184 45.6333 41.0955 45.8098C41.4694 45.9842 41.904 45.9297 42.2235 45.6646L43.1903 44.8611L43.7287 46.0174C43.895 46.3783 44.1934 46.6526 44.5664 46.7886C44.7328 46.8491 44.9062 46.8794 45.0776 46.8794C45.2913 46.8794 45.505 46.833 45.7046 46.7403C46.0645 46.5729 46.3387 46.2745 46.4748 45.9015C46.6109 45.5275 46.5938 45.1232 46.4254 44.7643L45.8881 43.607L47.1251 43.3862C47.5344 43.3126 47.855 43.0172 47.9629 42.615C48.0707 42.2137 47.9397 41.7974 47.6221 41.5302ZM17.03 19.9356C17.03 18.9556 17.83 18.1556 18.815 18.1556H43.23C44.215 18.1556 45.015 18.9556 45.015 19.9356V20.8256H17.03V19.9356ZM40.4825 37.7911L40.4837 41.8806H18.815C17.83 41.8806 17.03 41.0806 17.03 40.1006V21.8606H45.015V39.3323L42.2255 36.9805C41.906 36.7104 41.4725 36.6559 41.0955 36.8303C40.7174 37.0057 40.4825 37.3737 40.4825 37.7911ZM46.9426 42.37L45.0463 42.7087C44.889 42.737 44.753 42.8368 44.6793 42.9789C44.6048 43.1211 44.6017 43.2894 44.6693 43.4346L45.4899 45.2008C45.5413 45.3097 45.5464 45.4337 45.505 45.5476C45.4627 45.6616 45.379 45.7533 45.2701 45.8047C45.1592 45.8551 45.0342 45.8612 44.9213 45.8188C44.8064 45.7775 44.7156 45.6938 44.6642 45.5829L43.8436 43.8187C43.7761 43.6735 43.645 43.5676 43.4888 43.5324C43.4514 43.5243 43.4131 43.5203 43.3759 43.5203C43.2569 43.5203 43.1399 43.5616 43.0462 43.6393L41.5168 44.849L41.5602 37.7689L46.9567 42.3186L46.9426 42.37Z" fill="white"/>
</svg>
