<svg width="64" height="64" viewBox="0 0 64 64" fill="none" xmlns="http://www.w3.org/2000/svg">
<rect width="64" height="64" fill="#007CF5"/>
<path fill-rule="evenodd" clip-rule="evenodd" d="M24.6443 32.8226H25.6775L26.2623 31.1079H28.7069L29.2873 32.8226H30.3205L28.0166 26.478H26.9526L24.6443 32.8226ZM27.4758 27.5288H27.4934L28.4387 30.3164H26.5261L27.4758 27.5288Z" fill="white"/>
<path fill-rule="evenodd" clip-rule="evenodd" d="M31.024 32.8226H32.0089V30.655H33.3851C34.6294 30.655 35.4911 29.8064 35.4911 28.5665V28.5577C35.4911 27.3135 34.6294 26.478 33.3851 26.478H31.024V32.8226ZM33.1389 27.309C33.9963 27.309 34.4887 27.7707 34.4887 28.5621V28.5709C34.4887 29.3667 33.9963 29.8284 33.1389 29.8284H32.0089V27.309H33.1389Z" fill="white"/>
<path d="M37.3378 32.8226H36.3529V26.478H37.3378V32.8226Z" fill="white"/>
<path fill-rule="evenodd" clip-rule="evenodd" d="M40.318 36.3424V36.3434H36.3404V38.7342H39.6479C39.9635 38.7342 40.2193 38.99 40.2193 39.3056V41.4794C40.4033 41.5284 40.5839 41.6021 40.7566 41.7019C41.8131 42.3118 42.1751 43.6627 41.5651 44.7192C40.9551 45.7757 39.6042 46.1377 38.5477 45.5277C37.4912 44.9178 37.1292 43.5669 37.7392 42.5103C38.0434 41.9834 38.5321 41.6292 39.0764 41.4822V39.877H35.7689C35.6174 39.877 35.472 39.8168 35.3649 39.7097C35.2577 39.6025 35.1975 39.4571 35.1975 39.3056V36.3434H32.4482V41.4805C33.3912 41.7324 34.0857 42.5925 34.0857 43.6148C34.0857 44.8348 33.0968 45.8237 31.8768 45.8237C30.6569 45.8237 29.668 44.8348 29.668 43.6148C29.668 42.5925 30.3625 41.7324 31.3054 41.4805V36.3434H28.5561V39.2912C28.5561 39.6068 28.3002 39.8626 27.9846 39.8626H24.6771V41.4822C25.2215 41.6292 25.7101 41.9834 26.0143 42.5103C26.6243 43.5669 26.2623 44.9178 25.2058 45.5277C24.1494 46.1377 22.7984 45.7757 22.1884 44.7192C21.5785 43.6627 21.9405 42.3118 22.9969 41.7019C23.1697 41.6021 23.3503 41.5284 23.5342 41.4794V39.2912C23.5342 38.9756 23.7901 38.7198 24.1057 38.7198H27.4132V36.3434H23.2972C20.4247 36.3045 18.1082 33.9633 18.1082 31.0815C18.1082 28.5093 19.9539 26.3681 22.3932 25.9102C22.3603 25.6368 22.3434 25.3585 22.3434 25.0762C22.3434 21.2654 25.4326 18.1761 29.2434 18.1761C31.7798 18.1761 33.9967 19.5447 35.1956 21.5837C35.5022 21.5237 35.8191 21.4922 36.1433 21.4922C38.3776 21.4922 40.2629 22.9869 40.8537 25.031C43.688 25.347 45.8917 27.7509 45.8917 30.6696C45.8917 33.7697 43.4053 36.2891 40.318 36.3424ZM40.2498 35.2005L40.2982 35.1997C42.7634 35.1571 44.7489 33.1451 44.7489 30.6696C44.7489 28.3396 42.9892 26.419 40.727 26.1669L39.9679 26.0822L39.7557 25.3484C39.3025 23.78 37.8551 22.6351 36.1433 22.6351C35.8932 22.6351 35.6498 22.6593 35.4153 22.7053L34.6208 22.8609L34.2105 22.163C33.2083 20.4588 31.3583 19.319 29.2434 19.319C26.0638 19.319 23.4862 21.8966 23.4862 25.0762C23.4862 25.3127 23.5004 25.5454 23.5279 25.7735L23.6559 26.836L22.6041 27.0335C20.6953 27.3918 19.2511 29.0692 19.2511 31.0815C19.2511 33.3372 21.0645 35.1696 23.3127 35.2001L23.3461 35.2005H40.2498ZM30.8108 43.6148C30.8108 44.2036 31.2881 44.6808 31.8768 44.6808C32.4656 44.6808 32.9429 44.2036 32.9429 43.6148C32.9429 43.0261 32.4656 42.5488 31.8768 42.5488C31.2881 42.5488 30.8108 43.0261 30.8108 43.6148ZM40.5754 44.1478C40.281 44.6577 39.629 44.8324 39.1192 44.538C38.6093 44.2436 38.4346 43.5916 38.729 43.0818C39.0233 42.5719 39.6753 42.3972 40.1852 42.6916C40.6951 42.986 40.8697 43.638 40.5754 44.1478ZM23.1782 44.1478C23.4726 44.6577 24.1245 44.8324 24.6344 44.538C25.1442 44.2436 25.319 43.5916 25.0246 43.0818C24.7302 42.5719 24.0783 42.3972 23.5684 42.6916C23.0585 42.986 22.8838 43.638 23.1782 44.1478Z" fill="white"/>
<path fill-rule="evenodd" clip-rule="evenodd" d="M39.9088 26.1523L39.6825 25.3695C39.2384 23.833 37.8203 22.7113 36.1432 22.7113C35.8981 22.7113 35.6597 22.7351 35.4299 22.7801L34.5825 22.946L34.1448 22.2017C33.1557 20.5197 31.3302 19.3952 29.2434 19.3952C26.1058 19.3952 23.5624 21.9387 23.5624 25.0762C23.5624 25.3097 23.5764 25.5393 23.6035 25.7644L23.74 26.8978L22.6181 27.1084C20.7447 27.4601 19.3272 29.1065 19.3272 31.0816C19.3272 33.2956 21.1071 35.094 23.3137 35.1239L23.3461 35.1244H40.2491L40.2969 35.1235C42.7205 35.0817 44.6727 33.1035 44.6727 30.6696C44.6727 28.3788 42.9426 26.4905 40.7186 26.2425L39.9088 26.1523ZM40.2498 35.2006L40.2982 35.1997C42.7634 35.1571 44.7489 33.1451 44.7489 30.6696C44.7489 28.3396 42.9892 26.419 40.727 26.1669L39.9679 26.0822L39.7557 25.3484C39.3025 23.7801 37.8551 22.6351 36.1432 22.6351C35.8932 22.6351 35.6498 22.6594 35.4152 22.7053L34.6208 22.8609L34.2104 22.1631C33.2083 20.4588 31.3583 19.319 29.2434 19.319C26.0638 19.319 23.4862 21.8966 23.4862 25.0762C23.4862 25.3127 23.5004 25.5454 23.5279 25.7735L23.6559 26.8361L22.6041 27.0335C20.6953 27.3918 19.251 29.0692 19.251 31.0816C19.251 33.3372 21.0645 35.1696 23.3127 35.2001L23.3461 35.2006H40.2498ZM23.2972 36.3434C20.4247 36.3045 18.1082 33.9633 18.1082 31.0816C18.1082 28.5093 19.9539 26.3681 22.3932 25.9102C22.3603 25.6368 22.3433 25.3585 22.3433 25.0762C22.3433 21.2654 25.4326 18.1762 29.2434 18.1762C31.7798 18.1762 33.9967 19.5448 35.1956 21.5838C35.5022 21.5237 35.8191 21.4922 36.1432 21.4922C38.3776 21.4922 40.2629 22.987 40.8536 25.031C43.688 25.347 45.8917 27.7509 45.8917 30.6696C45.8917 33.7697 43.4053 36.2891 40.3179 36.3424V36.3434H36.3403V38.7342H39.6479C39.9635 38.7342 40.2193 38.99 40.2193 39.3056V41.4794C40.4033 41.5284 40.5839 41.6022 40.7566 41.7019C41.8131 42.3118 42.1751 43.6627 41.5651 44.7193C40.9551 45.7757 39.6042 46.1377 38.5477 45.5277C37.4912 44.9178 37.1292 43.5669 37.7392 42.5104C38.0434 41.9834 38.532 41.6292 39.0764 41.4822V39.8771H35.7689C35.6174 39.8771 35.472 39.8169 35.3649 39.7097C35.2577 39.6025 35.1975 39.4572 35.1975 39.3056V36.3434H32.4482V41.4806C33.3912 41.7324 34.0857 42.5925 34.0857 43.6148C34.0857 44.8348 33.0968 45.8237 31.8768 45.8237C30.6569 45.8237 29.668 44.8348 29.668 43.6148C29.668 42.5925 30.3624 41.7324 31.3054 41.4806V36.3434H28.556V39.2912C28.556 39.6068 28.3002 39.8627 27.9846 39.8627H24.6771V41.4822C25.2215 41.6292 25.7101 41.9834 26.0143 42.5104C26.6243 43.5669 26.2623 44.9178 25.2058 45.5277C24.1493 46.1377 22.7984 45.7757 22.1884 44.7193C21.5785 43.6627 21.9404 42.3118 22.9969 41.7019C23.1697 41.6022 23.3503 41.5284 23.5342 41.4794V39.2912C23.5342 38.9756 23.7901 38.7198 24.1057 38.7198H27.4132V36.3434H23.2972ZM27.337 36.4196H23.2962C20.3821 36.3801 18.032 34.005 18.032 31.0816C18.032 28.4966 19.8694 26.3408 22.3095 25.8489C22.2815 25.5952 22.2672 25.3373 22.2672 25.0762C22.2672 21.2233 25.3905 18.1 29.2434 18.1C31.7887 18.1 34.0155 19.4632 35.2338 21.4989C35.5288 21.4445 35.8327 21.4161 36.1432 21.4161C38.3946 21.4161 40.2968 22.9104 40.9125 24.9612C43.7606 25.3041 45.9679 27.729 45.9679 30.6696C45.9679 33.7862 43.4883 36.3238 40.3941 36.4169V36.4196H36.4165V38.658H39.6479C40.0056 38.658 40.2955 38.948 40.2955 39.3056V41.4217C40.4663 41.4719 40.6338 41.543 40.7947 41.6358C41.8876 42.2668 42.2621 43.6644 41.6311 44.7574C41.0001 45.8502 39.6026 46.2247 38.5096 45.5937C37.4167 44.9627 37.0422 43.5652 37.6732 42.4723C37.9775 41.9454 38.4599 41.5855 39.0002 41.4247V39.9532H35.7689C35.5972 39.9532 35.4325 39.8851 35.311 39.7636C35.1895 39.6422 35.1213 39.4774 35.1213 39.3056V36.4196H32.5244V41.4228C33.471 41.702 34.1619 42.5776 34.1619 43.6148C34.1619 44.8768 33.1388 45.8999 31.8768 45.8999C30.6149 45.8999 29.5918 44.8768 29.5918 43.6148C29.5918 42.5777 30.2827 41.7021 31.2292 41.4229V36.4196H28.6322V39.2912C28.6322 39.6489 28.3423 39.9388 27.9846 39.9388H24.7533V41.4247C25.2936 41.5855 25.7762 41.9454 26.0803 42.4723C26.7113 43.5652 26.3368 44.9627 25.2439 45.5937C24.151 46.2247 22.7535 45.8502 22.1224 44.7574C21.4914 43.6644 21.8659 42.2668 22.9588 41.6358C23.1197 41.543 23.2873 41.4719 23.458 41.4217V39.2912C23.458 38.9336 23.748 38.6436 24.1057 38.6436H27.337V36.4196ZM24.5355 32.8988L26.8992 26.4019H28.07L30.4293 32.8988H29.2326L28.6523 31.1841H26.3168L25.732 32.8988H24.5355ZM26.2623 31.1079H28.7069L29.2873 32.8227H30.3205L28.0166 26.478H26.9526L24.6443 32.8227H25.6775L26.2623 31.1079ZM30.9478 32.8988V26.4019H33.3851C34.0246 26.4019 34.5711 26.6169 34.9581 26.9969C35.3452 27.3772 35.5673 27.9174 35.5673 28.5577V28.5665C35.5673 29.2047 35.3452 29.747 34.9583 30.1299C34.5715 30.5127 34.0249 30.7312 33.3851 30.7312H32.0851V32.8988H30.9478ZM32.0089 32.8227H31.024V26.478H33.3851C34.6294 26.478 35.4911 27.3135 35.4911 28.5577V28.5665C35.4911 29.8064 34.6294 30.655 33.3851 30.655H32.0089V32.8227ZM37.414 32.8988H36.2767V26.4019H37.414V32.8988ZM30.887 43.6148C30.887 44.1615 31.3301 44.6047 31.8768 44.6047C32.4235 44.6047 32.8667 44.1615 32.8667 43.6148C32.8667 43.0681 32.4235 42.625 31.8768 42.625C31.3301 42.625 30.887 43.0681 30.887 43.6148ZM39.1573 44.472C39.6307 44.7453 40.236 44.5832 40.5094 44.1097C40.7827 43.6363 40.6205 43.0309 40.1471 42.7576C39.6737 42.4842 39.0683 42.6464 38.795 43.1199C38.5216 43.5933 38.6838 44.1987 39.1573 44.472ZM23.2442 44.1097C23.5175 44.5832 24.1229 44.7453 24.5963 44.472C25.0697 44.1987 25.2319 43.5933 24.9586 43.1199C24.6853 42.6464 24.0799 42.4842 23.6065 42.7576C23.133 43.0309 22.9708 43.6363 23.2442 44.1097ZM28.4387 30.3164H26.5261L27.4758 27.5289H27.4934L28.4387 30.3164ZM27.4844 27.7398L26.6325 30.2403H28.3324L27.4844 27.7398ZM34.0834 27.6946C33.8712 27.497 33.5544 27.3852 33.1389 27.3852H32.0851V29.7523H33.1389C33.5544 29.7523 33.8711 29.6405 34.0834 29.4424C34.2948 29.2451 34.4125 28.9528 34.4125 28.5709V28.5622C34.4125 28.1826 34.2949 27.8915 34.0834 27.6946ZM31.8768 44.6809C31.2881 44.6809 30.8108 44.2036 30.8108 43.6148C30.8108 43.0261 31.2881 42.5488 31.8768 42.5488C32.4656 42.5488 32.9429 43.0261 32.9429 43.6148C32.9429 44.2036 32.4656 44.6809 31.8768 44.6809ZM39.1192 44.538C39.629 44.8324 40.281 44.6577 40.5754 44.1478C40.8697 43.638 40.6951 42.986 40.1851 42.6916C39.6753 42.3972 39.0233 42.5719 38.729 43.0818C38.4346 43.5916 38.6093 44.2436 39.1192 44.538ZM24.6344 44.538C24.1245 44.8324 23.4725 44.6577 23.1782 44.1478C22.8838 43.638 23.0585 42.986 23.5684 42.6916C24.0783 42.3972 24.7302 42.5719 25.0246 43.0818C25.3189 43.5916 25.1442 44.2436 24.6344 44.538ZM34.4887 28.5622C34.4887 27.7707 33.9963 27.3091 33.1389 27.3091H32.0089V29.8284H33.1389C33.9963 29.8284 34.4887 29.3667 34.4887 28.5709V28.5622ZM36.3529 32.8227V26.478H37.3378V32.8227H36.3529Z" fill="white"/>
</svg>
